<svg version="1.2" xmlns="http://www.w3.org/2000/svg" viewBox="0 0 44 39" width="44" height="39"><style>.a{fill:#282828;stroke:#282828;stroke-width:2}</style><path class="a" d="m1.6 19.9l20.6-18.8c0.1-0.1 0.3-0.1 0.5 0l20 18.8-0.5 0.4-19.8-18.5-20.3 18.6zm6.2 0.3v16.6h9.9v-9.9q0-0.1 0.1-0.2 0.1-0.1 0.3-0.1h8.5q0.1 0 0.2 0.1 0.1 0.1 0.1 0.2v9.9h10.1v-16.6h0.6v16.9q0 0.1-0.1 0.2-0.1 0.1-0.2 0.1h-10.7q-0.2 0-0.3-0.1-0.1-0.1-0.1-0.2v-9.8h-7.8v9.8q0 0.1-0.1 0.2-0.1 0.1-0.2 0.1h-10.6q-0.1 0-0.2-0.1-0.1-0.1-0.1-0.2v-16.9z"/></svg>