<svg version="1.2" xmlns="http://www.w3.org/2000/svg" viewBox="0 0 114 24" width="114" height="24"><style>.a{fill:#171717}</style><path class="a" d="m15.2 8.7c1.3 6.2-3.3 10.8-9.4 9.5-2.5-0.6-4.5-2.6-5.1-5.2-1.4-6.1 3.2-10.8 9.3-9.4 2.6 0.6 4.6 2.6 5.2 5.1zm-7.3 7.4c-2.8 0-4.9-2.2-4.9-5.2 0-3.1 2-5.2 4.9-5.2 2.9 0 4.9 2.1 4.9 5.2 0 3-2 5.2-4.9 5.2zm24.9-6.4v8.6h-2.5v-8.4c0-2.7-1.4-4.2-3.9-4.2-2.9 0-4.6 1.8-4.6 4.8v7.8h-2.6v-14.8h2.5v1.9c1.2-1.3 2.9-2 5-2 3.8 0 6.1 2.3 6.1 6.3zm19.2 1.2c0 4.3-3 7.5-7.3 7.5-2 0-3.8-0.8-5-2.1v7.2h-2.5l-0.1-20h2.5v2.1c1.2-1.5 3-2.2 5.1-2.2 4.3 0 7.3 3.1 7.3 7.5zm-7.4 5.2c-2.9 0-4.9-2.2-4.9-5.2 0-3.1 2-5.2 4.9-5.2 2.8 0 4.9 2.2 4.9 5.2 0 3-2 5.2-4.9 5.2zm38.7-12.6v14.8h-2.6v-14.8zm18.4 6.2v8.6h-2.5v-8.4c0-2.7-1.4-4.2-3.9-4.2-2.9 0-4.6 1.8-4.6 4.8v7.8h-2.5v-14.8h2.4v1.9c1.2-1.3 2.9-2 5-2 3.9 0 6.1 2.4 6.1 6.3zm11.9 7.3l-0.2 0.2c-0.8 0.7-1.9 1.1-3.2 1.1-2.8 0-4.4-1.6-4.4-4.4v-8.2-2.3-3.1h2.5v3.1h4.3v2.3h-4.3v8q0 2.3 2.1 2.3c0.8 0 1.4-0.2 1.9-0.6l0.3-0.3zm-37.4-6.2c0 6-4.2 10.3-10.1 10.3-5.8 0-10.1-4.3-10.1-10.3 0-5.9 4.3-10.1 10.1-10.1 5.9 0 10.1 4.2 10.1 10.1zm-5.5 4.7h-9.3c-0.7 0-1.3-0.6-1.3-1.3v-6.6c0-0.7 0.7-1.3 1.4-1.3l9.2-0.1c0.8 0 1.4 0.7 1.4 1.4v6.5c0 0.8-0.6 1.4-1.4 1.4z"/></svg>